<?xml version="1.0" encoding="utf-8"?>
<!-- Generator: Adobe Illustrator 21.1.0, SVG Export Plug-In . SVG Version: 6.00 Build 0)  -->
<svg version="1.1" xmlns="http://www.w3.org/2000/svg" xmlns:xlink="http://www.w3.org/1999/xlink" x="0px" y="0px"
	 viewBox="0 0 2000 2000" style="enable-background:new 0 0 2000 2000;" xml:space="preserve">
<style type="text/css">
	.st0{fill:#F0E2C5;}
	.st1{fill:#070A09;}
	.st2{fill:#E32718;}
	.st3{fill:none;stroke:#070A09;stroke-width:32;stroke-miterlimit:10;}
	.st4{fill:none;stroke:#000000;stroke-miterlimit:10;}
	.st5{display:none;}
	.st6{display:inline;}
	.st7{fill:none;stroke:#000000;stroke-width:1.2061;stroke-miterlimit:10;}
	.st8{fill:#070A09;stroke:#F0E2C5;stroke-width:35.6951;stroke-miterlimit:10;}
	.st9{clip-path:url(#SVGID_2_);}
	.st10{fill:#070A09;stroke:#F0E2C5;stroke-width:10;stroke-miterlimit:10;}
	.st11{font-family:'Poppins-Black';}
	.st12{font-size:100px;}
</style>
<g id="prop1">
</g>
<g id="ret1">
</g>
<g id="ret2" class="st5">
	<g id="image_file" class="st6">
		<g>
			<line class="st7" x1="226" y1="2394.1" x2="-1228" y2="-124.1"/>
		</g>
		<g>
			<line class="st7" x1="-1228" y1="2394.1" x2="226" y2="-124.1"/>
		</g>
	</g>
	<g id="audio_file" class="st6">
		<g id="filesystem_3_">
			<rect x="-2" y="0.5" class="st4" width="1999.5" height="1999.5"/>
			<line class="st4" x1="-2" y1="1750.1" x2="1997.5" y2="1750.1"/>
			<line class="st4" x1="-2" y1="1500.1" x2="1997.5" y2="1500.1"/>
			<line class="st4" x1="-2" y1="1250.2" x2="1997.5" y2="1250.2"/>
			<line class="st4" x1="-2" y1="1000.3" x2="1997.5" y2="1000.3"/>
			<line class="st4" x1="-2" y1="750.3" x2="1997.5" y2="750.3"/>
			<line class="st4" x1="-2" y1="500.4" x2="1997.5" y2="500.4"/>
			<line class="st4" x1="-2" y1="250.4" x2="1997.5" y2="250.4"/>
			<line class="st4" x1="1747.6" y1="0.5" x2="1747.6" y2="2000"/>
			<line class="st4" x1="1497.6" y1="0.5" x2="1497.6" y2="2000"/>
			<line class="st4" x1="1247.7" y1="0.5" x2="1247.7" y2="2000"/>
			<line class="st4" x1="997.8" y1="0.5" x2="997.8" y2="2000"/>
			<line class="st4" x1="747.8" y1="0.5" x2="747.8" y2="2000"/>
			<line class="st4" x1="497.9" y1="0.5" x2="497.9" y2="2000"/>
			<line class="st4" x1="247.9" y1="0.5" x2="247.9" y2="2000"/>
		</g>
		<g>
			<line class="st7" x1="1975" y1="2394.1" x2="521" y2="-124.1"/>
			<line class="st7" x1="2225" y1="2394.1" x2="771" y2="-124.1"/>
			<line class="st7" x1="2475" y1="2394.1" x2="1021" y2="-124.1"/>
			<line class="st7" x1="2725" y1="2394.1" x2="1271" y2="-124.1"/>
			<line class="st7" x1="2975" y1="2394.1" x2="1521" y2="-124.1"/>
			<line class="st7" x1="1725" y1="2394.1" x2="271" y2="-124.1"/>
			<line class="st7" x1="1475" y1="2394.1" x2="21" y2="-124.1"/>
			<line class="st7" x1="1225" y1="2394.1" x2="-229" y2="-124.1"/>
			<line class="st7" x1="975" y1="2394.1" x2="-479" y2="-124.1"/>
			<line class="st7" x1="725" y1="2394.1" x2="-729" y2="-124.1"/>
			<line class="st7" x1="475" y1="2394.1" x2="-979" y2="-124.1"/>
			<line class="st7" x1="225" y1="2394.1" x2="-1229" y2="-124.1"/>
		</g>
		<g>
			<line class="st7" x1="-229" y1="2394.1" x2="1225" y2="-124.1"/>
			<line class="st7" x1="-479" y1="2394.1" x2="975" y2="-124.1"/>
			<line class="st7" x1="-729" y1="2394.1" x2="725" y2="-124.1"/>
			<line class="st7" x1="-979" y1="2394.1" x2="475" y2="-124.1"/>
			<line class="st7" x1="-1229" y1="2394.1" x2="225" y2="-124.1"/>
			<line class="st7" x1="21" y1="2394.1" x2="1475" y2="-124.1"/>
			<line class="st7" x1="271" y1="2394.1" x2="1725" y2="-124.1"/>
			<line class="st7" x1="521" y1="2394.1" x2="1975" y2="-124.1"/>
			<line class="st7" x1="771" y1="2394.1" x2="2225" y2="-124.1"/>
			<line class="st7" x1="1021" y1="2394.1" x2="2475" y2="-124.1"/>
			<line class="st7" x1="1271" y1="2394.1" x2="2725" y2="-124.1"/>
			<line class="st7" x1="1521" y1="2394.1" x2="2975" y2="-124.1"/>
		</g>
	</g>
	<g id="home_2_" class="st6">
		<g>
			<line class="st7" x1="3231" y1="2394.1" x2="1777" y2="-124.1"/>
			<line class="st7" x1="2981" y1="2394.1" x2="1527" y2="-124.1"/>
		</g>
		<g>
			<line class="st7" x1="1777" y1="2394.1" x2="3231" y2="-124.1"/>
			<line class="st7" x1="1527" y1="2394.1" x2="2981" y2="-124.1"/>
		</g>
	</g>
</g>
<g id="prop2">
	<g id="audiofile">
		<polygon class="st2" points="1118.5,591 658.1,1398.2 502.5,1659 752.5,1659 881.2,1443.3 1369.5,591 1618.5,591 1763.5,341 
			1264.5,341 		"/>
		<circle class="st2" cx="414.5" cy="1404" r="178"/>
		<g>
			<text transform="matrix(0.7243 -1.2545 0.866 0.5 856.6233 1448.3361)" class="st0 st11 st12">AUDIO FILE</text>
		</g>
	</g>
</g>
</svg>
