<?xml version="1.0" encoding="utf-8"?>
<!-- Generator: Adobe Illustrator 21.1.0, SVG Export Plug-In . SVG Version: 6.00 Build 0)  -->
<svg version="1.1" xmlns="http://www.w3.org/2000/svg" xmlns:xlink="http://www.w3.org/1999/xlink" x="0px" y="0px"
	 viewBox="0 0 2000 2000" style="enable-background:new 0 0 2000 2000;" xml:space="preserve">
<style type="text/css">
	.st0{fill:#F0E2C5;}
	.st1{fill:#070A09;}
	.st2{fill:#E32718;}
	.st3{fill:none;stroke:#070A09;stroke-width:32;stroke-miterlimit:10;}
	.st4{fill:none;stroke:#000000;stroke-miterlimit:10;}
	.st5{display:none;}
	.st6{display:inline;}
	.st7{fill:none;stroke:#000000;stroke-width:1.2061;stroke-miterlimit:10;}
	.st8{fill:#070A09;stroke:#F0E2C5;stroke-width:35.6951;stroke-miterlimit:10;}
	.st9{clip-path:url(#SVGID_2_);}
	.st10{fill:#070A09;stroke:#F0E2C5;stroke-width:10;stroke-miterlimit:10;}
</style>
<g id="prop1">
</g>
<g id="ret1">
</g>
<g id="ret2" class="st5">
	<g id="chat_1_" class="st6">
		<g>
			<line class="st7" x1="224.5" y1="2394.1" x2="-1229.5" y2="-124.1"/>
			<line class="st7" x1="474.5" y1="2394.1" x2="-979.5" y2="-124.1"/>
			<line class="st7" x1="724.5" y1="2394.1" x2="-729.5" y2="-124.1"/>
		</g>
		<g>
			<line class="st7" x1="-1229.5" y1="2394.1" x2="224.5" y2="-124.1"/>
			<line class="st7" x1="-979.5" y1="2394.1" x2="474.5" y2="-124.1"/>
			<line class="st7" x1="-729.5" y1="2394.1" x2="724.5" y2="-124.1"/>
		</g>
	</g>
	<g id="close_2_" class="st6">
		<g id="filesystem_8_">
			<rect x="0.5" y="0.5" class="st4" width="1999.5" height="1999.5"/>
			<line class="st4" x1="0.5" y1="1750.1" x2="2000" y2="1750.1"/>
			<line class="st4" x1="0.5" y1="1500.1" x2="2000" y2="1500.1"/>
			<line class="st4" x1="0.5" y1="1250.2" x2="2000" y2="1250.2"/>
			<line class="st4" x1="0.5" y1="1000.3" x2="2000" y2="1000.3"/>
			<line class="st4" x1="0.5" y1="750.3" x2="2000" y2="750.3"/>
			<line class="st4" x1="0.5" y1="500.4" x2="2000" y2="500.4"/>
			<line class="st4" x1="0.5" y1="250.4" x2="2000" y2="250.4"/>
			<line class="st4" x1="1750.1" y1="0.5" x2="1750.1" y2="2000"/>
			<line class="st4" x1="1500.1" y1="0.5" x2="1500.1" y2="2000"/>
			<line class="st4" x1="1250.2" y1="0.5" x2="1250.2" y2="2000"/>
			<line class="st4" x1="1000.3" y1="0.5" x2="1000.3" y2="2000"/>
			<line class="st4" x1="750.3" y1="0.5" x2="750.3" y2="2000"/>
			<line class="st4" x1="500.4" y1="0.5" x2="500.4" y2="2000"/>
			<line class="st4" x1="250.4" y1="0.5" x2="250.4" y2="2000"/>
		</g>
		<g>
			<line class="st7" x1="1977.5" y1="2394.1" x2="523.5" y2="-124.1"/>
			<line class="st7" x1="2227.5" y1="2394.1" x2="773.5" y2="-124.1"/>
			<line class="st7" x1="2477.5" y1="2394.1" x2="1023.5" y2="-124.1"/>
			<line class="st7" x1="2727.5" y1="2394.1" x2="1273.5" y2="-124.1"/>
			<line class="st7" x1="2977.5" y1="2394.1" x2="1523.5" y2="-124.1"/>
			<line class="st7" x1="1727.5" y1="2394.1" x2="273.5" y2="-124.1"/>
			<line class="st7" x1="1477.5" y1="2394.1" x2="23.5" y2="-124.1"/>
			<line class="st7" x1="1227.5" y1="2394.1" x2="-226.5" y2="-124.1"/>
			<line class="st7" x1="977.5" y1="2394.1" x2="-476.5" y2="-124.1"/>
			<line class="st7" x1="727.5" y1="2394.1" x2="-726.5" y2="-124.1"/>
			<line class="st7" x1="477.5" y1="2394.1" x2="-976.5" y2="-124.1"/>
			<line class="st7" x1="227.5" y1="2394.1" x2="-1226.5" y2="-124.1"/>
		</g>
		<g>
			<line class="st7" x1="-226.5" y1="2394.1" x2="1227.5" y2="-124.1"/>
			<line class="st7" x1="-476.5" y1="2394.1" x2="977.5" y2="-124.1"/>
			<line class="st7" x1="-726.5" y1="2394.1" x2="727.5" y2="-124.1"/>
			<line class="st7" x1="-976.5" y1="2394.1" x2="477.5" y2="-124.1"/>
			<line class="st7" x1="-1226.5" y1="2394.1" x2="227.5" y2="-124.1"/>
			<line class="st7" x1="23.5" y1="2394.1" x2="1477.5" y2="-124.1"/>
			<line class="st7" x1="273.5" y1="2394.1" x2="1727.5" y2="-124.1"/>
			<line class="st7" x1="523.5" y1="2394.1" x2="1977.5" y2="-124.1"/>
			<line class="st7" x1="773.5" y1="2394.1" x2="2227.5" y2="-124.1"/>
			<line class="st7" x1="1023.5" y1="2394.1" x2="2477.5" y2="-124.1"/>
			<line class="st7" x1="1273.5" y1="2394.1" x2="2727.5" y2="-124.1"/>
			<line class="st7" x1="1523.5" y1="2394.1" x2="2977.5" y2="-124.1"/>
		</g>
	</g>
	<g id="min" class="st6">
		<g>
			<line class="st7" x1="3231.5" y1="2394.1" x2="1777.5" y2="-124.1"/>
			<line class="st7" x1="2981.5" y1="2394.1" x2="1527.5" y2="-124.1"/>
			<line class="st7" x1="2731.5" y1="2394.1" x2="1277.5" y2="-124.1"/>
		</g>
		<g>
			<line class="st7" x1="1777.5" y1="2394.1" x2="3231.5" y2="-124.1"/>
			<line class="st7" x1="1527.5" y1="2394.1" x2="2981.5" y2="-124.1"/>
			<line class="st7" x1="1277.5" y1="2394.1" x2="2731.5" y2="-124.1"/>
		</g>
	</g>
</g>
<g id="prop2">
	<g id="close_3_">
		<polygon class="st2" points="1000.5,702 1375.5,54 1501.5,269 1125.5,919 		"/>
		<polygon class="st2" points="1001.5,705 626.5,57 500.5,272 876.5,922 		"/>
		<polygon class="st2" points="1000.5,1136 625.5,1784 499.5,1569 875.5,919 		"/>
		<polygon class="st2" points="999.5,1133 1374.5,1781 1500.5,1566 1124.5,916 		"/>
	</g>
</g>
</svg>
