<?xml version="1.0" encoding="utf-8"?>
<!-- Generator: Adobe Illustrator 21.1.0, SVG Export Plug-In . SVG Version: 6.00 Build 0)  -->
<svg version="1.1" xmlns="http://www.w3.org/2000/svg" xmlns:xlink="http://www.w3.org/1999/xlink" x="0px" y="0px"
	 viewBox="0 0 2000 2000" style="enable-background:new 0 0 2000 2000;" xml:space="preserve">
<style type="text/css">
	.st0{fill:#F0E2C5;}
	.st1{fill:#070A09;}
	.st2{fill:#E32718;}
	.st3{fill:none;stroke:#070A09;stroke-width:32;stroke-miterlimit:10;}
	.st4{fill:none;stroke:#000000;stroke-miterlimit:10;}
	.st5{display:none;}
	.st6{display:inline;}
	.st7{fill:none;stroke:#000000;stroke-width:1.2061;stroke-miterlimit:10;}
	.st8{font-family:'Poppins-Black';}
	.st9{font-size:100px;}
	.st10{fill:#070A09;stroke:#F0E2C5;stroke-width:35.6951;stroke-miterlimit:10;}
	.st11{clip-path:url(#SVGID_2_);}
	.st12{fill:#070A09;stroke:#F0E2C5;stroke-width:10;stroke-miterlimit:10;}
</style>
<g id="prop1">
</g>
<g id="ret1">
</g>
<g id="ret2" class="st5">
	<g id="filesystem_2_" class="st6">
		<g id="filesystem_1_">
			<rect x="0.5" y="0.5" class="st4" width="1999.5" height="1999.5"/>
			<line class="st4" x1="0.5" y1="1750.1" x2="2000" y2="1750.1"/>
			<line class="st4" x1="0.5" y1="1500.1" x2="2000" y2="1500.1"/>
			<line class="st4" x1="0.5" y1="1250.2" x2="2000" y2="1250.2"/>
			<line class="st4" x1="0.5" y1="1000.3" x2="2000" y2="1000.3"/>
			<line class="st4" x1="0.5" y1="750.3" x2="2000" y2="750.3"/>
			<line class="st4" x1="0.5" y1="500.4" x2="2000" y2="500.4"/>
			<line class="st4" x1="0.5" y1="250.4" x2="2000" y2="250.4"/>
			<line class="st4" x1="1750.1" y1="0.5" x2="1750.1" y2="2000"/>
			<line class="st4" x1="1500.1" y1="0.5" x2="1500.1" y2="2000"/>
			<line class="st4" x1="1250.2" y1="0.5" x2="1250.2" y2="2000"/>
			<line class="st4" x1="1000.3" y1="0.5" x2="1000.3" y2="2000"/>
			<line class="st4" x1="750.3" y1="0.5" x2="750.3" y2="2000"/>
			<line class="st4" x1="500.4" y1="0.5" x2="500.4" y2="2000"/>
			<line class="st4" x1="250.4" y1="0.5" x2="250.4" y2="2000"/>
		</g>
		<g>
			<line class="st7" x1="1977.5" y1="2394.1" x2="523.5" y2="-124.1"/>
			<line class="st7" x1="2227.5" y1="2394.1" x2="773.5" y2="-124.1"/>
			<line class="st7" x1="2477.5" y1="2394.1" x2="1023.5" y2="-124.1"/>
			<line class="st7" x1="2727.5" y1="2394.1" x2="1273.5" y2="-124.1"/>
			<line class="st7" x1="2977.5" y1="2394.1" x2="1523.5" y2="-124.1"/>
			<line class="st7" x1="1727.5" y1="2394.1" x2="273.5" y2="-124.1"/>
			<line class="st7" x1="1477.5" y1="2394.1" x2="23.5" y2="-124.1"/>
			<line class="st7" x1="1227.5" y1="2394.1" x2="-226.5" y2="-124.1"/>
			<line class="st7" x1="977.5" y1="2394.1" x2="-476.5" y2="-124.1"/>
			<line class="st7" x1="727.5" y1="2394.1" x2="-726.5" y2="-124.1"/>
			<line class="st7" x1="477.5" y1="2394.1" x2="-976.5" y2="-124.1"/>
			<line class="st7" x1="227.5" y1="2394.1" x2="-1226.5" y2="-124.1"/>
		</g>
		<g>
			<line class="st7" x1="-226.5" y1="2394.1" x2="1227.5" y2="-124.1"/>
			<line class="st7" x1="-476.5" y1="2394.1" x2="977.5" y2="-124.1"/>
			<line class="st7" x1="-726.5" y1="2394.1" x2="727.5" y2="-124.1"/>
			<line class="st7" x1="-976.5" y1="2394.1" x2="477.5" y2="-124.1"/>
			<line class="st7" x1="-1226.5" y1="2394.1" x2="227.5" y2="-124.1"/>
			<line class="st7" x1="23.5" y1="2394.1" x2="1477.5" y2="-124.1"/>
			<line class="st7" x1="273.5" y1="2394.1" x2="1727.5" y2="-124.1"/>
			<line class="st7" x1="523.5" y1="2394.1" x2="1977.5" y2="-124.1"/>
			<line class="st7" x1="773.5" y1="2394.1" x2="2227.5" y2="-124.1"/>
			<line class="st7" x1="1023.5" y1="2394.1" x2="2477.5" y2="-124.1"/>
			<line class="st7" x1="1273.5" y1="2394.1" x2="2727.5" y2="-124.1"/>
			<line class="st7" x1="1523.5" y1="2394.1" x2="2977.5" y2="-124.1"/>
		</g>
	</g>
	<g id="textfile" class="st6">
		<g>
			<line class="st7" x1="3230.5" y1="2394.1" x2="1776.5" y2="-124.1"/>
			<line class="st7" x1="2980.5" y1="2394.1" x2="1526.5" y2="-124.1"/>
			<line class="st7" x1="2730.5" y1="2394.1" x2="1276.5" y2="-124.1"/>
			<line class="st7" x1="2480.5" y1="2394.1" x2="1026.5" y2="-124.1"/>
		</g>
		<g>
			<line class="st7" x1="1776.5" y1="2394.1" x2="3230.5" y2="-124.1"/>
			<line class="st7" x1="1526.5" y1="2394.1" x2="2980.5" y2="-124.1"/>
			<line class="st7" x1="1276.5" y1="2394.1" x2="2730.5" y2="-124.1"/>
			<line class="st7" x1="1026.5" y1="2394.1" x2="2480.5" y2="-124.1"/>
		</g>
	</g>
</g>
<g id="prop2">
	<g id="filesystem_5_">
		<polyline class="st1" points="1677.8,584.1 1100.6,1583.9 437.3,1583.1 436.8,332.7 700.9,333.7 844.9,583.7 		"/>
		<g>
			<text transform="matrix(0.7243 -1.2545 0.866 0.5 1114.6731 1543.0304)" class="st0 st8 st9">FILE SYSTEM</text>
		</g>
		<polygon class="st0" points="313,402.3 436.8,332.7 436.9,403 		"/>
		<polyline class="st0" points="977.1,1652.7 1100.9,1582.7 979,1582 977.5,1652.5 		"/>
		<g>
			<polygon class="st0" points="1549,658.7 1547,655.3 1674,584.1 1677.8,584.1 1676.8,586 			"/>
		</g>
		<polyline class="st2" points="1554.9,652.7 977.8,1652.4 313.5,1652.7 313.5,652.7 313,402.3 678,402.3 822,652.3 		"/>
	</g>
</g>
</svg>
