<?xml version="1.0" encoding="utf-8"?>
<!-- Generator: Adobe Illustrator 21.1.0, SVG Export Plug-In . SVG Version: 6.00 Build 0)  -->
<svg version="1.1" xmlns="http://www.w3.org/2000/svg" xmlns:xlink="http://www.w3.org/1999/xlink" x="0px" y="0px"
	 viewBox="0 0 2000 2000" style="enable-background:new 0 0 2000 2000;" xml:space="preserve">
<style type="text/css">
	.st0{fill:#F0E2C5;}
	.st1{fill:#070A09;}
	.st2{fill:#E32718;}
	.st3{fill:none;stroke:#070A09;stroke-width:32;stroke-miterlimit:10;}
	.st4{fill:none;stroke:#000000;stroke-miterlimit:10;}
	.st5{display:none;}
	.st6{display:inline;}
	.st7{fill:none;stroke:#000000;stroke-width:1.2061;stroke-miterlimit:10;}
	.st8{fill:#070A09;stroke:#F0E2C5;stroke-width:35.6951;stroke-miterlimit:10;}
	.st9{clip-path:url(#SVGID_2_);}
	.st10{fill:#070A09;stroke:#F0E2C5;stroke-width:10;stroke-miterlimit:10;}
</style>
<g id="prop1">
</g>
<g id="ret1">
</g>
<g id="ret2" class="st5">
	<g id="videofile" class="st6">
		<g>
			<line class="st7" x1="218" y1="2403.1" x2="-1236" y2="-115.1"/>
		</g>
		<g>
			<line class="st7" x1="-1236" y1="2403.1" x2="218" y2="-115.1"/>
		</g>
	</g>
	<g id="image_file" class="st6">
		<g id="filesystem_9_">
			<rect x="-2" y="0.5" class="st4" width="1999.5" height="1999.5"/>
			<line class="st4" x1="-2" y1="1750.1" x2="1997.5" y2="1750.1"/>
			<line class="st4" x1="-2" y1="1500.1" x2="1997.5" y2="1500.1"/>
			<line class="st4" x1="-2" y1="1250.2" x2="1997.5" y2="1250.2"/>
			<line class="st4" x1="-2" y1="1000.3" x2="1997.5" y2="1000.3"/>
			<line class="st4" x1="-2" y1="750.3" x2="1997.5" y2="750.3"/>
			<line class="st4" x1="-2" y1="500.4" x2="1997.5" y2="500.4"/>
			<line class="st4" x1="-2" y1="250.4" x2="1997.5" y2="250.4"/>
			<line class="st4" x1="1747.6" y1="0.5" x2="1747.6" y2="2000"/>
			<line class="st4" x1="1497.6" y1="0.5" x2="1497.6" y2="2000"/>
			<line class="st4" x1="1247.7" y1="0.5" x2="1247.7" y2="2000"/>
			<line class="st4" x1="997.8" y1="0.5" x2="997.8" y2="2000"/>
			<line class="st4" x1="747.8" y1="0.5" x2="747.8" y2="2000"/>
			<line class="st4" x1="497.9" y1="0.5" x2="497.9" y2="2000"/>
			<line class="st4" x1="247.9" y1="0.5" x2="247.9" y2="2000"/>
		</g>
		<g>
			<line class="st7" x1="1975" y1="2394.1" x2="521" y2="-124.1"/>
			<line class="st7" x1="2225" y1="2394.1" x2="771" y2="-124.1"/>
			<line class="st7" x1="2475" y1="2394.1" x2="1021" y2="-124.1"/>
			<line class="st7" x1="2725" y1="2394.1" x2="1271" y2="-124.1"/>
			<line class="st7" x1="2975" y1="2394.1" x2="1521" y2="-124.1"/>
			<line class="st7" x1="1725" y1="2394.1" x2="271" y2="-124.1"/>
			<line class="st7" x1="1475" y1="2394.1" x2="21" y2="-124.1"/>
			<line class="st7" x1="1225" y1="2394.1" x2="-229" y2="-124.1"/>
			<line class="st7" x1="975" y1="2394.1" x2="-479" y2="-124.1"/>
			<line class="st7" x1="725" y1="2394.1" x2="-729" y2="-124.1"/>
			<line class="st7" x1="475" y1="2394.1" x2="-979" y2="-124.1"/>
			<line class="st7" x1="225" y1="2394.1" x2="-1229" y2="-124.1"/>
		</g>
		<g>
			<line class="st7" x1="-229" y1="2394.1" x2="1225" y2="-124.1"/>
			<line class="st7" x1="-479" y1="2394.1" x2="975" y2="-124.1"/>
			<line class="st7" x1="-729" y1="2394.1" x2="725" y2="-124.1"/>
			<line class="st7" x1="-979" y1="2394.1" x2="475" y2="-124.1"/>
			<line class="st7" x1="-1229" y1="2394.1" x2="225" y2="-124.1"/>
			<line class="st7" x1="21" y1="2394.1" x2="1475" y2="-124.1"/>
			<line class="st7" x1="271" y1="2394.1" x2="1725" y2="-124.1"/>
			<line class="st7" x1="521" y1="2394.1" x2="1975" y2="-124.1"/>
			<line class="st7" x1="771" y1="2394.1" x2="2225" y2="-124.1"/>
			<line class="st7" x1="1021" y1="2394.1" x2="2475" y2="-124.1"/>
			<line class="st7" x1="1271" y1="2394.1" x2="2725" y2="-124.1"/>
			<line class="st7" x1="1521" y1="2394.1" x2="2975" y2="-124.1"/>
		</g>
	</g>
	<g id="audio_file" class="st6">
		<g>
			<line class="st7" x1="3224" y1="2394.1" x2="1770" y2="-124.1"/>
			<line class="st7" x1="2974" y1="2394.1" x2="1520" y2="-124.1"/>
		</g>
		<g>
			<line class="st7" x1="1770" y1="2394.1" x2="3224" y2="-124.1"/>
			<line class="st7" x1="1520" y1="2394.1" x2="2974" y2="-124.1"/>
		</g>
	</g>
</g>
<g id="prop2">
	<g id="imageFile">
		<polygon class="st1" points="287.6,1625 1040.6,308 1907.1,299.5 1145.6,1616 		"/>
		<polygon class="st2" points="138.5,1692.8 891.5,375.8 1758,367.3 996.5,1683.8 		"/>
		<circle class="st8" cx="1078.4" cy="993.8" r="248.8"/>
		<g>
			<defs>
				<circle id="SVGID_1_" cx="1078.4" cy="993.8" r="234.6"/>
			</defs>
			<clipPath id="SVGID_2_">
				<use xlink:href="#SVGID_1_"  style="overflow:visible;"/>
			</clipPath>
			<g class="st9">
				<path class="st10" d="M1084,993c0,0-71.4-176.3-14-269.3c152.2,63.7,217.7,104.2,217.7,104.2S1171.5,794.4,1084,993z"/>
				<path class="st10" d="M1084,993c0,0-178-67-207.5-172.3c150-68.7,224.1-89.4,224.1-89.4S997.3,794,1084,993z"/>
				<path class="st10" d="M1084,993c0,0-165.4,93.9-265.2,49.1C844,877,893.7,812.7,893.7,812.7S875.7,932.2,1084,993z"/>
				<path class="st10" d="M1084,993c0,0-40,186-139.7,230.7C806,1114,822.8,1015.2,822.8,1015.2S900,1108.1,1084,993z"/>
				<path class="st10" d="M1084,993c0,0,111.3,154.3,77.7,258.3c-174.1,29.2-236.2-49.4-236.2-49.4S1046.2,1206.7,1084,993z"/>
				<path class="st10" d="M1084,993c0,0,189.4,17.5,245.7,111.2c-92.4,150.4-192.5,145.5-192.5,145.5S1220.3,1161.9,1084,993z"/>
				<path class="st10" d="M1084,993c0,0,82.8-171.2,190.3-191.1c54.8,155.6,68.7,231.3,68.7,231.3S1290,924.7,1084,993z"/>
			</g>
		</g>
	</g>
</g>
</svg>
