<?xml version="1.0" encoding="utf-8"?>
<!-- Generator: Adobe Illustrator 21.1.0, SVG Export Plug-In . SVG Version: 6.00 Build 0)  -->
<svg version="1.1" xmlns="http://www.w3.org/2000/svg" xmlns:xlink="http://www.w3.org/1999/xlink" x="0px" y="0px"
	 viewBox="0 0 2000 2000" style="enable-background:new 0 0 2000 2000;" xml:space="preserve">
<style type="text/css">
	.st0{fill:#F0E2C5;}
	.st1{fill:#070A09;}
	.st2{fill:#E32718;}
	.st3{fill:none;stroke:#070A09;stroke-width:32;stroke-miterlimit:10;}
	.st4{fill:none;stroke:#000000;stroke-miterlimit:10;}
	.st5{display:none;}
	.st6{display:inline;}
	.st7{fill:none;stroke:#000000;stroke-width:1.2061;stroke-miterlimit:10;}
	.st8{fill:#070A09;stroke:#F0E2C5;stroke-width:35.6951;stroke-miterlimit:10;}
	.st9{clip-path:url(#SVGID_2_);}
	.st10{fill:#070A09;stroke:#F0E2C5;stroke-width:10;stroke-miterlimit:10;}
</style>
<g id="prop1">
</g>
<g id="ret1">
</g>
<g id="ret2" class="st5">
	<g id="close_2_" class="st6">
		<g>
			<line class="st7" x1="223.5" y1="2394.1" x2="-1230.5" y2="-124.1"/>
			<line class="st7" x1="473.5" y1="2394.1" x2="-980.5" y2="-124.1"/>
		</g>
		<g>
			<line class="st7" x1="-1230.5" y1="2394.1" x2="223.5" y2="-124.1"/>
			<line class="st7" x1="-980.5" y1="2394.1" x2="473.5" y2="-124.1"/>
		</g>
	</g>
	<g id="min" class="st6">
		<g id="filesystem_11_">
			<rect x="0.5" y="0.5" class="st4" width="1999.5" height="1999.5"/>
			<line class="st4" x1="0.5" y1="1750.1" x2="2000" y2="1750.1"/>
			<line class="st4" x1="0.5" y1="1500.1" x2="2000" y2="1500.1"/>
			<line class="st4" x1="0.5" y1="1250.2" x2="2000" y2="1250.2"/>
			<line class="st4" x1="0.5" y1="1000.3" x2="2000" y2="1000.3"/>
			<line class="st4" x1="0.5" y1="750.3" x2="2000" y2="750.3"/>
			<line class="st4" x1="0.5" y1="500.4" x2="2000" y2="500.4"/>
			<line class="st4" x1="0.5" y1="250.4" x2="2000" y2="250.4"/>
			<line class="st4" x1="1750.1" y1="0.5" x2="1750.1" y2="2000"/>
			<line class="st4" x1="1500.1" y1="0.5" x2="1500.1" y2="2000"/>
			<line class="st4" x1="1250.2" y1="0.5" x2="1250.2" y2="2000"/>
			<line class="st4" x1="1000.3" y1="0.5" x2="1000.3" y2="2000"/>
			<line class="st4" x1="750.3" y1="0.5" x2="750.3" y2="2000"/>
			<line class="st4" x1="500.4" y1="0.5" x2="500.4" y2="2000"/>
			<line class="st4" x1="250.4" y1="0.5" x2="250.4" y2="2000"/>
		</g>
		<g>
			<line class="st7" x1="1977.5" y1="2394.1" x2="523.5" y2="-124.1"/>
			<line class="st7" x1="2227.5" y1="2394.1" x2="773.5" y2="-124.1"/>
			<line class="st7" x1="2477.5" y1="2394.1" x2="1023.5" y2="-124.1"/>
			<line class="st7" x1="2727.5" y1="2394.1" x2="1273.5" y2="-124.1"/>
			<line class="st7" x1="2977.5" y1="2394.1" x2="1523.5" y2="-124.1"/>
			<line class="st7" x1="1727.5" y1="2394.1" x2="273.5" y2="-124.1"/>
			<line class="st7" x1="1477.5" y1="2394.1" x2="23.5" y2="-124.1"/>
			<line class="st7" x1="1227.5" y1="2394.1" x2="-226.5" y2="-124.1"/>
			<line class="st7" x1="977.5" y1="2394.1" x2="-476.5" y2="-124.1"/>
			<line class="st7" x1="727.5" y1="2394.1" x2="-726.5" y2="-124.1"/>
			<line class="st7" x1="477.5" y1="2394.1" x2="-976.5" y2="-124.1"/>
			<line class="st7" x1="227.5" y1="2394.1" x2="-1226.5" y2="-124.1"/>
		</g>
		<g>
			<line class="st7" x1="-226.5" y1="2394.1" x2="1227.5" y2="-124.1"/>
			<line class="st7" x1="-476.5" y1="2394.1" x2="977.5" y2="-124.1"/>
			<line class="st7" x1="-726.5" y1="2394.1" x2="727.5" y2="-124.1"/>
			<line class="st7" x1="-976.5" y1="2394.1" x2="477.5" y2="-124.1"/>
			<line class="st7" x1="-1226.5" y1="2394.1" x2="227.5" y2="-124.1"/>
			<line class="st7" x1="23.5" y1="2394.1" x2="1477.5" y2="-124.1"/>
			<line class="st7" x1="273.5" y1="2394.1" x2="1727.5" y2="-124.1"/>
			<line class="st7" x1="523.5" y1="2394.1" x2="1977.5" y2="-124.1"/>
			<line class="st7" x1="773.5" y1="2394.1" x2="2227.5" y2="-124.1"/>
			<line class="st7" x1="1023.5" y1="2394.1" x2="2477.5" y2="-124.1"/>
			<line class="st7" x1="1273.5" y1="2394.1" x2="2727.5" y2="-124.1"/>
			<line class="st7" x1="1523.5" y1="2394.1" x2="2977.5" y2="-124.1"/>
		</g>
	</g>
	<g id="min_1_" class="st6">
		<g>
			<line class="st7" x1="3236.5" y1="2394.1" x2="1782.5" y2="-124.1"/>
			<line class="st7" x1="2986.5" y1="2394.1" x2="1532.5" y2="-124.1"/>
		</g>
		<g>
			<line class="st7" x1="1782.5" y1="2394.1" x2="3236.5" y2="-124.1"/>
			<line class="st7" x1="1532.5" y1="2394.1" x2="2986.5" y2="-124.1"/>
		</g>
	</g>
</g>
<svg vieBox="0 0 2000 2000"><polygon class="middle" points="521.2,297.7 562.2,845.2 1015.9,535.9"/><polygon class="middle" points="1478.8,1702.3 1437.8,1154.8 984.1,1464.1"/><polygon class="dark" points="1309.4,789 1547.7,294.3 1857,748"/><polygon class="dark" points="690.6,1211 452.3,1705.7 143,1252"/><rect x="760.3" y="760" transform="matrix(0.8262 -0.5633 0.5633 0.8262 -315.8082 644.4836)" class="middle" width="253" height="148.4"/><rect x="986.4" y="1091.6" transform="matrix(0.8262 -0.5633 0.5633 0.8262 -463.381 829.5362)" class="middle" width="253" height="148.6"/><rect x="760.2" y="986.4" transform="matrix(0.8262 -0.5633 0.5633 0.8262 -481.9824 663.2869)" class="dark" width="148" height="253"/><rect x="1091.5" y="760.4" transform="matrix(0.8262 -0.5633 0.5633 0.8262 -297.1024 810.7222)" class="dark" width="148.3" height="253"/></svg>
