<?xml version="1.0" encoding="utf-8"?>
<!-- Generator: Adobe Illustrator 21.1.0, SVG Export Plug-In . SVG Version: 6.00 Build 0)  -->
<svg version="1.1" xmlns="http://www.w3.org/2000/svg" xmlns:xlink="http://www.w3.org/1999/xlink" x="0px" y="0px"
	 viewBox="0 0 2000 2000" style="enable-background:new 0 0 2000 2000;" xml:space="preserve">
<style type="text/css">
	.st0{fill:#F0E2C5;}
	.st1{fill:#070A09;}
	.st2{fill:#E32718;}
	.st3{fill:none;stroke:#070A09;stroke-width:32;stroke-miterlimit:10;}
	.st4{fill:none;stroke:#000000;stroke-miterlimit:10;}
	.st5{display:none;}
	.st6{display:inline;}
	.st7{fill:none;stroke:#000000;stroke-width:1.2061;stroke-miterlimit:10;}
	.st8{font-family:'Poppins-Black';}
	.st9{font-size:100px;}
	.st10{fill:#070A09;stroke:#F0E2C5;stroke-width:35.6951;stroke-miterlimit:10;}
	.st11{clip-path:url(#SVGID_2_);}
	.st12{fill:#070A09;stroke:#F0E2C5;stroke-width:10;stroke-miterlimit:10;}
</style>
<g id="prop1">
</g>
<g id="ret1">
</g>
<g id="ret2" class="st5">
	<g id="filesystem_2_" class="st6">
		<g>
			<line class="st7" x1="224.5" y1="2394.1" x2="-1229.5" y2="-124.1"/>
			<line class="st7" x1="474.5" y1="2394.1" x2="-979.5" y2="-124.1"/>
			<line class="st7" x1="724.5" y1="2394.1" x2="-729.5" y2="-124.1"/>
		</g>
		<g>
			<line class="st7" x1="-1229.5" y1="2394.1" x2="224.5" y2="-124.1"/>
			<line class="st7" x1="-979.5" y1="2394.1" x2="474.5" y2="-124.1"/>
			<line class="st7" x1="-729.5" y1="2394.1" x2="724.5" y2="-124.1"/>
		</g>
	</g>
	<g id="textfile" class="st6">
		<g id="filesystem_4_">
			<rect x="0.5" y="0.5" class="st4" width="1999.5" height="1999.5"/>
			<line class="st4" x1="0.5" y1="1750.1" x2="2000" y2="1750.1"/>
			<line class="st4" x1="0.5" y1="1500.1" x2="2000" y2="1500.1"/>
			<line class="st4" x1="0.5" y1="1250.2" x2="2000" y2="1250.2"/>
			<line class="st4" x1="0.5" y1="1000.3" x2="2000" y2="1000.3"/>
			<line class="st4" x1="0.5" y1="750.3" x2="2000" y2="750.3"/>
			<line class="st4" x1="0.5" y1="500.4" x2="2000" y2="500.4"/>
			<line class="st4" x1="0.5" y1="250.4" x2="2000" y2="250.4"/>
			<line class="st4" x1="1750.1" y1="0.5" x2="1750.1" y2="2000"/>
			<line class="st4" x1="1500.1" y1="0.5" x2="1500.1" y2="2000"/>
			<line class="st4" x1="1250.2" y1="0.5" x2="1250.2" y2="2000"/>
			<line class="st4" x1="1000.3" y1="0.5" x2="1000.3" y2="2000"/>
			<line class="st4" x1="750.3" y1="0.5" x2="750.3" y2="2000"/>
			<line class="st4" x1="500.4" y1="0.5" x2="500.4" y2="2000"/>
			<line class="st4" x1="250.4" y1="0.5" x2="250.4" y2="2000"/>
		</g>
		<g>
			<line class="st7" x1="1977.5" y1="2394.1" x2="523.5" y2="-124.1"/>
			<line class="st7" x1="2227.5" y1="2394.1" x2="773.5" y2="-124.1"/>
			<line class="st7" x1="2477.5" y1="2394.1" x2="1023.5" y2="-124.1"/>
			<line class="st7" x1="2727.5" y1="2394.1" x2="1273.5" y2="-124.1"/>
			<line class="st7" x1="2977.5" y1="2394.1" x2="1523.5" y2="-124.1"/>
			<line class="st7" x1="1727.5" y1="2394.1" x2="273.5" y2="-124.1"/>
			<line class="st7" x1="1477.5" y1="2394.1" x2="23.5" y2="-124.1"/>
			<line class="st7" x1="1227.5" y1="2394.1" x2="-226.5" y2="-124.1"/>
			<line class="st7" x1="977.5" y1="2394.1" x2="-476.5" y2="-124.1"/>
			<line class="st7" x1="727.5" y1="2394.1" x2="-726.5" y2="-124.1"/>
			<line class="st7" x1="477.5" y1="2394.1" x2="-976.5" y2="-124.1"/>
			<line class="st7" x1="227.5" y1="2394.1" x2="-1226.5" y2="-124.1"/>
		</g>
		<g>
			<line class="st7" x1="-226.5" y1="2394.1" x2="1227.5" y2="-124.1"/>
			<line class="st7" x1="-476.5" y1="2394.1" x2="977.5" y2="-124.1"/>
			<line class="st7" x1="-726.5" y1="2394.1" x2="727.5" y2="-124.1"/>
			<line class="st7" x1="-976.5" y1="2394.1" x2="477.5" y2="-124.1"/>
			<line class="st7" x1="-1226.5" y1="2394.1" x2="227.5" y2="-124.1"/>
			<line class="st7" x1="23.5" y1="2394.1" x2="1477.5" y2="-124.1"/>
			<line class="st7" x1="273.5" y1="2394.1" x2="1727.5" y2="-124.1"/>
			<line class="st7" x1="523.5" y1="2394.1" x2="1977.5" y2="-124.1"/>
			<line class="st7" x1="773.5" y1="2394.1" x2="2227.5" y2="-124.1"/>
			<line class="st7" x1="1023.5" y1="2394.1" x2="2477.5" y2="-124.1"/>
			<line class="st7" x1="1273.5" y1="2394.1" x2="2727.5" y2="-124.1"/>
			<line class="st7" x1="1523.5" y1="2394.1" x2="2977.5" y2="-124.1"/>
		</g>
	</g>
	<g id="videofile" class="st6">
		<g>
			<line class="st7" x1="3231" y1="2403.1" x2="1777" y2="-115.1"/>
			<line class="st7" x1="2981" y1="2403.1" x2="1527" y2="-115.1"/>
			<line class="st7" x1="2731" y1="2403.1" x2="1277" y2="-115.1"/>
		</g>
		<g>
			<line class="st7" x1="1777" y1="2403.1" x2="3231" y2="-115.1"/>
			<line class="st7" x1="1527" y1="2403.1" x2="2981" y2="-115.1"/>
			<line class="st7" x1="1277" y1="2403.1" x2="2731" y2="-115.1"/>
		</g>
	</g>
</g>
<g id="prop2">
	<g id="textfile_1_">
		<polygon class="st2" points="1880.5,337 880.5,337 119.5,1655 1115.5,1663 		"/>
		<g>
			<text transform="matrix(0.7243 -1.2545 0.866 0.5 1289.6233 1352.3361)" class="st0 st8 st9">TEXT FILE</text>
		</g>
		<g>
			<path class="st3" d="M899,582c15-3,680,0,680,0"/>
			<path class="st3" d="M969,454c15-3,680,0,680,0"/>
			<path class="st3" d="M809,718c15-3,680,0,680,0"/>
			<path class="st3" d="M750,831c15-3,680,0,680,0"/>
			<path class="st3" d="M679,953c15-3,680,0,680,0"/>
			<path class="st3" d="M610,1082c15-3,680,0,680,0"/>
			<path class="st3" d="M457,1332c15-3,680,0,680,0"/>
			<path class="st3" d="M529,1215c15-3,680,0,680,0"/>
		</g>
	</g>
</g>
</svg>
