<?xml version="1.0" encoding="utf-8"?>
<!-- Generator: Adobe Illustrator 21.1.0, SVG Export Plug-In . SVG Version: 6.00 Build 0)  -->
<svg version="1.1" xmlns="http://www.w3.org/2000/svg" xmlns:xlink="http://www.w3.org/1999/xlink" x="0px" y="0px"
	 viewBox="0 0 2000 2000" style="enable-background:new 0 0 2000 2000;" xml:space="preserve">
<style type="text/css">
	.st0{fill:#F0E2C5;}
	.st1{fill:#070A09;}
	.st2{fill:#E32718;}
	.st3{fill:none;stroke:#070A09;stroke-width:32;stroke-miterlimit:10;}
	.st4{fill:none;stroke:#000000;stroke-miterlimit:10;}
	.st5{display:none;}
	.st6{display:inline;}
	.st7{fill:none;stroke:#000000;stroke-width:1.2061;stroke-miterlimit:10;}
	.st8{font-family:'Poppins-Black';}
	.st9{font-size:100px;}
	.st10{fill:#070A09;stroke:#F0E2C5;stroke-width:35.6951;stroke-miterlimit:10;}
	.st11{clip-path:url(#SVGID_2_);}
	.st12{fill:#070A09;stroke:#F0E2C5;stroke-width:10;stroke-miterlimit:10;}
</style>
<g id="prop1">
</g>
<g id="ret1">
</g>
<g id="ret2" class="st5">
	<g id="textfile" class="st6">
		<g>
			<line class="st7" x1="223.5" y1="2394.1" x2="-1230.5" y2="-124.1"/>
			<line class="st7" x1="473.5" y1="2394.1" x2="-980.5" y2="-124.1"/>
		</g>
		<g>
			<line class="st7" x1="-1230.5" y1="2394.1" x2="223.5" y2="-124.1"/>
			<line class="st7" x1="-980.5" y1="2394.1" x2="473.5" y2="-124.1"/>
		</g>
	</g>
	<g id="videofile" class="st6">
		<g id="filesystem_7_">
			<rect y="9.5" class="st4" width="1999.5" height="1999.5"/>
			<line class="st4" x1="0" y1="1759.1" x2="1999.5" y2="1759.1"/>
			<line class="st4" x1="0" y1="1509.1" x2="1999.5" y2="1509.1"/>
			<line class="st4" x1="0" y1="1259.2" x2="1999.5" y2="1259.2"/>
			<line class="st4" x1="0" y1="1009.3" x2="1999.5" y2="1009.3"/>
			<line class="st4" x1="0" y1="759.3" x2="1999.5" y2="759.3"/>
			<line class="st4" x1="0" y1="509.4" x2="1999.5" y2="509.4"/>
			<line class="st4" x1="0" y1="259.4" x2="1999.5" y2="259.4"/>
			<line class="st4" x1="1749.6" y1="9.5" x2="1749.6" y2="2009"/>
			<line class="st4" x1="1499.6" y1="9.5" x2="1499.6" y2="2009"/>
			<line class="st4" x1="1249.7" y1="9.5" x2="1249.7" y2="2009"/>
			<line class="st4" x1="999.8" y1="9.5" x2="999.8" y2="2009"/>
			<line class="st4" x1="749.8" y1="9.5" x2="749.8" y2="2009"/>
			<line class="st4" x1="499.9" y1="9.5" x2="499.9" y2="2009"/>
			<line class="st4" x1="249.9" y1="9.5" x2="249.9" y2="2009"/>
		</g>
		<g>
			<line class="st7" x1="1977" y1="2403.1" x2="523" y2="-115.1"/>
			<line class="st7" x1="2227" y1="2403.1" x2="773" y2="-115.1"/>
			<line class="st7" x1="2477" y1="2403.1" x2="1023" y2="-115.1"/>
			<line class="st7" x1="2727" y1="2403.1" x2="1273" y2="-115.1"/>
			<line class="st7" x1="2977" y1="2403.1" x2="1523" y2="-115.1"/>
			<line class="st7" x1="1727" y1="2403.1" x2="273" y2="-115.1"/>
			<line class="st7" x1="1477" y1="2403.1" x2="23" y2="-115.1"/>
			<line class="st7" x1="1227" y1="2403.1" x2="-227" y2="-115.1"/>
			<line class="st7" x1="977" y1="2403.1" x2="-477" y2="-115.1"/>
			<line class="st7" x1="727" y1="2403.1" x2="-727" y2="-115.1"/>
			<line class="st7" x1="477" y1="2403.1" x2="-977" y2="-115.1"/>
			<line class="st7" x1="227" y1="2403.1" x2="-1227" y2="-115.1"/>
		</g>
		<g>
			<line class="st7" x1="-227" y1="2403.1" x2="1227" y2="-115.1"/>
			<line class="st7" x1="-477" y1="2403.1" x2="977" y2="-115.1"/>
			<line class="st7" x1="-727" y1="2403.1" x2="727" y2="-115.1"/>
			<line class="st7" x1="-977" y1="2403.1" x2="477" y2="-115.1"/>
			<line class="st7" x1="-1227" y1="2403.1" x2="227" y2="-115.1"/>
			<line class="st7" x1="23" y1="2403.1" x2="1477" y2="-115.1"/>
			<line class="st7" x1="273" y1="2403.1" x2="1727" y2="-115.1"/>
			<line class="st7" x1="523" y1="2403.1" x2="1977" y2="-115.1"/>
			<line class="st7" x1="773" y1="2403.1" x2="2227" y2="-115.1"/>
			<line class="st7" x1="1023" y1="2403.1" x2="2477" y2="-115.1"/>
			<line class="st7" x1="1273" y1="2403.1" x2="2727" y2="-115.1"/>
			<line class="st7" x1="1523" y1="2403.1" x2="2977" y2="-115.1"/>
		</g>
	</g>
	<g id="image_file" class="st6">
		<g>
			<line class="st7" x1="3234" y1="2394.1" x2="1780" y2="-124.1"/>
			<line class="st7" x1="2984" y1="2394.1" x2="1530" y2="-124.1"/>
		</g>
		<g>
			<line class="st7" x1="1780" y1="2394.1" x2="3234" y2="-124.1"/>
			<line class="st7" x1="1530" y1="2394.1" x2="2984" y2="-124.1"/>
		</g>
	</g>
</g>
<g id="prop2">
	<g id="videoFile">
		<polygon class="st2" points="161,1500 882,250 1133,250 411,1500 		"/>
		<polygon class="st2" points="540,1500 1261,250 1512,250 790,1500 		"/>
		<g>
			<text transform="matrix(0.7243 -1.2545 0.866 0.5 860.6233 1352.3361)" class="st0 st8 st9">VIDEO FILE</text>
		</g>
		<polygon class="st2" points="1403,648 1086.1,1197 1720,1197 		"/>
	</g>
</g>
</svg>
